<?xml version="1.0" standalone="no"?>
<!DOCTYPE svg PUBLIC "-//W3C//DTD SVG 20010904//EN"
 "http://www.w3.org/TR/2001/REC-SVG-20010904/DTD/svg10.dtd">
<svg version="1.0" xmlns="http://www.w3.org/2000/svg"
 width="128.000000pt" height="128.000000pt" viewBox="0 0 128.000000 128.000000"
 preserveAspectRatio="xMidYMid meet">
<metadata>
Created by potrace 1.11, written by Peter Selinger 2001-2013
</metadata>
<g transform="translate(0.000000,128.000000) scale(0.100000,-0.100000)"
fill="#000000" stroke="none">
<path d="M548 1212 c-26 -15 -132 -75 -235 -135 -104 -59 -195 -117 -203 -130
-11 -17 -14 -64 -15 -197 -1 -96 1 -181 3 -187 6 -19 148 -8 217 16 88 31 133
62 225 156 103 104 172 143 269 149 106 6 216 -31 314 -107 24 -19 37 -24 38
-15 6 78 -1 161 -15 182 -15 24 -70 58 -343 215 -159 91 -181 96 -255 53z"/>
<path d="M973 715 c-93 -25 -154 -64 -255 -163 -106 -105 -109 -107 -181 -133
-70 -26 -193 -20 -267 11 -55 24 -126 67 -153 95 -13 13 -15 12 -19 -3 -10
-44 -1 -161 14 -184 20 -30 466 -287 508 -293 29 -3 57 8 156 66 23 13 112 64
198 114 86 49 163 100 172 113 13 20 16 56 16 191 0 91 0 174 -1 184 -1 14
-11 17 -68 16 -38 0 -92 -7 -120 -14z"/>
</g>
</svg>
